<svg width="8" height="13" viewBox="0 0 8 13" fill="none" xmlns="http://www.w3.org/2000/svg">
<path d="M4.32408 1.26519C4.54638 1.15655 4.69936 0.929335 4.69936 0.666667C4.69936 0.298475 4.39877 0 4.02803 0C3.65729 0 3.3567 0.298475 3.3567 0.666667C3.3567 0.930067 3.51054 1.1578 3.73383 1.26609C2.80573 2.30621 0 5.65367 0 8.11111C0 9.65289 1.02448 11.1202 2.40565 11.7889H1.00705L0.559495 13H7.49656L7.04901 11.7889H5.60271C6.9817 11.1201 8 9.65262 8 8.11111C8 6.78017 7.24639 5.24894 6.39565 3.94444L4.2518 6.05556L3.69236 5.5L5.93012 3.26378C5.29769 2.37926 4.67668 1.65734 4.32408 1.26519Z" fill="#EBEBEB"/>
</svg>
