<svg width="131" height="17" viewBox="0 0 131 17" fill="none" xmlns="http://www.w3.org/2000/svg">
<path d="M13.6134 14.3084C12.963 15.1108 12.1765 15.7559 11.2538 16.2437C10.3311 16.7314 9.18151 16.9753 7.80504 16.9753C6.06555 16.9753 4.61345 16.5977 3.44874 15.8425C2.29916 15.0715 1.43698 14.1117 0.862185 12.9631C0.287395 11.8145 0 10.5793 0 9.25766C0 7.92024 0.287395 6.67724 0.862185 5.52863C1.43698 4.38003 2.29916 3.42811 3.44874 2.67286C4.61345 1.90188 6.06555 1.51639 7.80504 1.51639C8.37983 1.51639 8.92437 1.56359 9.43866 1.658C9.95294 1.75241 10.4294 1.88615 10.8681 2.05922C10.9437 2.07496 11.0571 2.11429 11.2084 2.17723V2.20083H11.2311C11.579 2.34244 11.9345 2.53125 12.2975 2.76727C12.6756 3.00328 12.9706 3.24716 13.1824 3.49891C13.3639 3.71919 13.4698 3.93947 13.5 4.15975C13.5303 4.3643 13.5076 4.55311 13.4319 4.72618C13.3714 4.88353 13.2731 5.0094 13.137 5.10381C13.0008 5.19821 12.8496 5.24542 12.6832 5.24542C12.5168 5.24542 12.3504 5.19821 12.184 5.10381C12.0176 4.99367 11.874 4.81272 11.7529 4.56098C11.6773 4.40363 11.6244 4.23842 11.5941 4.06535C11.5639 3.89227 11.5109 3.71919 11.4353 3.54611C11.3597 3.37304 11.2311 3.19209 11.0496 3.00328C10.8681 2.81447 10.5958 2.63353 10.2328 2.46045C9.86975 2.33457 9.46891 2.24804 9.03025 2.20083C8.5916 2.15363 8.1832 2.13003 7.80504 2.13003C6.51933 2.13003 5.43782 2.48405 4.5605 3.19209C3.68319 3.8844 3.02521 4.76552 2.58656 5.83545C2.1479 6.88965 1.92101 8.03039 1.90588 9.25766C1.90588 10.4849 2.11765 11.6335 2.54118 12.7035C2.97983 13.7577 3.63782 14.6388 4.51513 15.3468C5.39244 16.0391 6.48908 16.3853 7.80504 16.3853C8.5916 16.3853 9.25714 16.3145 9.80168 16.1729C10.3613 16.0155 10.8378 15.8189 11.2311 15.5828C11.6244 15.3468 11.9496 15.0793 12.2067 14.7804C12.479 14.4657 12.7134 14.1589 12.9101 13.8599C13.0462 13.6554 13.1975 13.5531 13.3639 13.5531C13.5303 13.5531 13.6513 13.6318 13.7269 13.7891C13.8176 13.9465 13.7798 14.1196 13.6134 14.3084Z" fill="#EBEBEB"/>
<path d="M19.273 16.3617C19.394 16.3932 19.4469 16.4718 19.4318 16.5977C19.4318 16.7078 19.3713 16.7629 19.2503 16.7629H14.894C14.773 16.7629 14.7049 16.7078 14.6898 16.5977C14.6898 16.4718 14.7503 16.3932 14.8713 16.3617C15.0528 16.3302 15.2267 16.3066 15.3931 16.2909C15.5746 16.2751 15.7259 16.2437 15.8469 16.1965C15.983 16.1335 16.0889 16.0313 16.1645 15.8897C16.2402 15.7323 16.278 15.4963 16.278 15.1816V2.60206C16.278 2.28737 16.2629 2.05136 16.2326 1.89401C16.2175 1.72094 16.1646 1.59506 16.0738 1.51639C15.983 1.43772 15.8545 1.39052 15.6881 1.37478C15.5368 1.35905 15.3251 1.35118 15.0528 1.35118C14.9318 1.35118 14.8561 1.29611 14.8259 1.18597C14.8108 1.07583 14.894 0.989293 15.0755 0.926357C15.499 0.816216 15.9225 0.690342 16.3461 0.548733C16.7847 0.407124 17.1931 0.241915 17.5713 0.0531038C17.6318 0.0216347 17.6923 0.0137672 17.7528 0.0295013C17.8133 0.0295013 17.8435 0.068837 17.8435 0.147508V7.72357C18.2368 7.06273 18.7814 6.57496 19.4772 6.26028C20.173 5.92986 20.8839 5.76465 21.6099 5.76465C22.0788 5.76465 22.5326 5.83545 22.9713 5.97706C23.4099 6.10294 23.7956 6.29961 24.1284 6.5671C24.4763 6.81885 24.7486 7.1414 24.9452 7.53475C25.157 7.92811 25.2629 8.38441 25.2629 8.90364V15.1816C25.2629 15.4963 25.3007 15.7323 25.3763 15.8897C25.4519 16.0313 25.5503 16.1335 25.6713 16.1965C25.8074 16.2437 25.9587 16.2751 26.1251 16.2909C26.3066 16.3066 26.4956 16.3302 26.6923 16.3617C26.7982 16.3932 26.8511 16.4718 26.8511 16.5977C26.8511 16.7078 26.7906 16.7629 26.6696 16.7629H22.2906C22.1696 16.7629 22.1091 16.7078 22.1091 16.5977C22.1091 16.4718 22.162 16.3932 22.2679 16.3617C22.4646 16.3302 22.6461 16.3066 22.8125 16.2909C22.994 16.2751 23.1452 16.2437 23.2662 16.1965C23.4024 16.1335 23.5082 16.0313 23.5839 15.8897C23.6595 15.7323 23.6973 15.4963 23.6973 15.1816V8.90364C23.6973 8.13266 23.4402 7.56622 22.9259 7.20433C22.4267 6.84245 21.8368 6.6615 21.1561 6.6615C20.7629 6.6615 20.3696 6.72444 19.9763 6.85031C19.583 6.97619 19.2276 7.165 18.9099 7.41675C18.5923 7.65276 18.3351 7.95171 18.1385 8.3136C17.9419 8.67549 17.8435 9.09245 17.8435 9.56448V15.1816C17.8435 15.4963 17.8814 15.7323 17.957 15.8897C18.0326 16.0313 18.1309 16.1335 18.2519 16.1965C18.3881 16.2437 18.5393 16.2751 18.7057 16.2909C18.8872 16.3066 19.0763 16.3302 19.273 16.3617Z" fill="#EBEBEB"/>
<path d="M36.7354 14.7332C36.3875 15.394 35.843 15.9211 35.1018 16.3145C34.3606 16.6921 33.5287 16.8809 32.606 16.8809C31.9707 16.8809 31.343 16.7865 30.7228 16.5977C30.1026 16.3932 29.543 16.0706 29.0438 15.63C28.5446 15.1895 28.1362 14.623 27.8186 13.9307C27.5161 13.2227 27.3572 12.3652 27.3421 11.3582C27.327 10.5243 27.4329 9.76902 27.6598 9.09245C27.8867 8.40014 28.2119 7.8101 28.6354 7.32234C29.0589 6.81885 29.5808 6.43335 30.2009 6.16587C30.8211 5.88266 31.5169 5.74105 32.2883 5.74105C32.9841 5.74105 33.6194 5.85905 34.1942 6.09507C34.7841 6.31535 35.2909 6.6379 35.7144 7.06273C36.1379 7.47182 36.4631 7.97531 36.69 8.57322C36.932 9.17112 37.053 9.83983 37.053 10.5793C37.053 10.7839 36.9925 10.9648 36.8715 11.1222C36.7505 11.2638 36.5614 11.3346 36.3043 11.3346H29.0665C29.0665 12.2157 29.1799 12.971 29.4068 13.6003C29.6337 14.214 29.9287 14.7175 30.2917 15.1108C30.6547 15.4884 31.0707 15.7717 31.5396 15.9605C32.0085 16.1335 32.485 16.2122 32.969 16.1965C33.6345 16.1807 34.2472 16.0391 34.8068 15.7717C35.3665 15.4884 35.8203 15.04 36.1682 14.4264C36.2589 14.269 36.3724 14.1904 36.5085 14.1904C36.6144 14.1904 36.6976 14.2454 36.7581 14.3556C36.8186 14.4657 36.811 14.5916 36.7354 14.7332ZM32.4698 6.42549C31.3656 6.45696 30.5488 6.85818 30.0194 7.62916C29.49 8.40014 29.1875 9.415 29.1119 10.6737H34.353C34.7917 10.6737 35.1018 10.5793 35.2833 10.3905C35.4648 10.186 35.5556 9.88703 35.5556 9.49367C35.5556 9.10032 35.4875 8.72269 35.3514 8.36081C35.2303 7.98318 35.0337 7.65276 34.7614 7.36954C34.5043 7.08633 34.1791 6.85818 33.7858 6.6851C33.4077 6.51203 32.969 6.42549 32.4698 6.42549Z" fill="#EBEBEB"/>
<path d="M47.9496 14.7332C47.6017 15.394 47.0345 15.9211 46.248 16.3145C45.4614 16.6921 44.6068 16.8809 43.6841 16.8809C43.0488 16.8809 42.4211 16.7865 41.8009 16.5977C41.1807 16.3932 40.6211 16.0706 40.1219 15.63C39.6379 15.1895 39.237 14.623 38.9194 13.9307C38.6169 13.2227 38.458 12.3652 38.4429 11.3582C38.4278 10.5243 38.5412 9.76902 38.7833 9.09245C39.0404 8.40014 39.3959 7.8101 39.8496 7.32234C40.3186 6.81885 40.8707 6.43335 41.5059 6.16587C42.1564 5.88266 42.8673 5.74105 43.6387 5.74105C44.1984 5.74105 44.7354 5.82759 45.2496 6.00066C45.7639 6.17374 46.2328 6.44122 46.6564 6.80311H46.6791C46.6791 6.81884 46.6942 6.84245 46.7244 6.87391C46.7547 6.90538 46.8228 6.97619 46.9286 7.08633C47.0345 7.18073 47.1026 7.24367 47.1328 7.27514L47.1782 7.32234L47.2917 7.46395C47.2917 7.46395 47.3068 7.47968 47.337 7.51115C47.3824 7.58983 47.4505 7.6921 47.5412 7.81797C47.5715 7.84944 47.5866 7.86518 47.5866 7.86518V7.88878C47.7681 8.18773 47.874 8.46308 47.9043 8.71483C47.9345 9.17112 47.8589 9.50154 47.6774 9.70609C47.4959 9.91063 47.2917 10.0129 47.0648 10.0129C46.8228 10.0129 46.611 9.91063 46.4295 9.70609C46.248 9.48581 46.2177 9.18685 46.3387 8.80923C46.4295 8.51028 46.4446 8.19559 46.3841 7.86518C46.3387 7.51902 46.1648 7.2358 45.8622 7.01552C45.832 6.98406 45.8093 6.96832 45.7942 6.96832C45.7337 6.88965 45.6429 6.84245 45.5219 6.82671H45.5446C45.0303 6.55923 44.5085 6.42549 43.9791 6.42549C42.7236 6.42549 41.7707 6.87391 41.1202 7.77077C40.4849 8.65189 40.1673 9.83196 40.1673 11.311C40.1673 12.1921 40.2807 12.9473 40.5076 13.5767C40.7345 14.2061 41.0295 14.7175 41.3925 15.1108C41.7555 15.4884 42.1715 15.7717 42.6404 15.9605C43.1093 16.1335 43.5858 16.2122 44.0698 16.1965C44.7202 16.1807 45.348 16.0391 45.953 15.7717C46.558 15.4884 47.0345 15.04 47.3824 14.4264C47.4732 14.269 47.5866 14.1904 47.7228 14.1904C47.8286 14.1904 47.9118 14.2454 47.9723 14.3556C48.0328 14.4657 48.0253 14.5916 47.9496 14.7332Z" fill="#EBEBEB"/>
<path d="M53.2844 16.3617C53.4054 16.3932 53.4584 16.4718 53.4432 16.5977C53.4432 16.7078 53.3827 16.7629 53.2617 16.7629H48.9054C48.7844 16.7629 48.7163 16.7078 48.7012 16.5977C48.7012 16.4718 48.7617 16.3932 48.8827 16.3617C49.0794 16.3302 49.2609 16.3066 49.4273 16.2909C49.6088 16.2751 49.76 16.2437 49.8811 16.1965C50.0172 16.1335 50.1231 16.0313 50.1987 15.8897C50.2743 15.7323 50.3121 15.4963 50.3121 15.1816V2.60206C50.3121 2.28737 50.297 2.05136 50.2668 1.89401C50.2365 1.72094 50.176 1.59506 50.0853 1.51639C50.0096 1.43772 49.8886 1.39052 49.7222 1.37478C49.571 1.35905 49.3592 1.35118 49.0869 1.35118C48.9659 1.35118 48.8903 1.29611 48.86 1.18597C48.8449 1.07583 48.9281 0.989293 49.1096 0.926357C49.518 0.816216 49.934 0.690342 50.3575 0.548733C50.7962 0.407124 51.2046 0.241915 51.5827 0.0531038C51.7642 -0.0413025 51.855 -0.00983436 51.855 0.147508V12.8687L56.5063 7.20433L56.4836 7.22794C56.6348 7.03912 56.7029 6.88965 56.6878 6.77951C56.6878 6.66937 56.6273 6.58283 56.5063 6.51989C56.4004 6.45696 56.2491 6.41762 56.0525 6.40189C55.871 6.37042 55.6743 6.34682 55.4626 6.33108C55.3416 6.31535 55.2811 6.24454 55.2811 6.11867C55.2962 5.99279 55.3642 5.92986 55.4853 5.92986H59.6827C59.8037 5.92986 59.8642 5.99279 59.8642 6.11867C59.8794 6.24454 59.834 6.31535 59.7281 6.33108C59.0626 6.37829 58.5407 6.49629 58.1626 6.6851C57.7995 6.85818 57.4214 7.17287 57.0281 7.62916C56.6348 8.11692 56.1962 8.65189 55.7121 9.23406C55.2432 9.80049 54.7743 10.3669 54.3054 10.9334L58.2987 15.3232V15.2996C58.5407 15.5514 58.7449 15.7481 58.9113 15.8897C59.0928 16.0155 59.2592 16.1099 59.4105 16.1729C59.5617 16.2358 59.713 16.283 59.8642 16.3145C60.0155 16.3302 60.1819 16.3538 60.3634 16.3853C60.4844 16.401 60.5374 16.4718 60.5222 16.5977C60.5222 16.7078 60.4617 16.7629 60.3407 16.7629H56.1659C56.0449 16.7629 55.9768 16.7078 55.9617 16.5977C55.9617 16.4718 56.0222 16.401 56.1432 16.3853C56.4458 16.3224 56.6273 16.2279 56.6878 16.1021C56.7634 15.9762 56.6424 15.7402 56.3247 15.394L53.6928 12.5147C53.5869 12.4045 53.4659 12.3494 53.3298 12.3494C53.2088 12.3494 53.1105 12.3888 53.0348 12.4675C52.8079 12.7349 52.5962 12.9867 52.3995 13.2227C52.2029 13.4587 52.0214 13.6711 51.855 13.8599V15.1816C51.855 15.4963 51.8928 15.7323 51.9684 15.8897C52.0441 16.0313 52.15 16.1335 52.2861 16.1965C52.4222 16.2437 52.5735 16.2751 52.7399 16.2909C52.9214 16.3066 53.1029 16.3302 53.2844 16.3617Z" fill="#EBEBEB"/>
<path d="M76.5469 9.04525C77.2427 9.20259 77.8099 9.51727 78.2486 9.9893C78.6873 10.4456 78.9822 10.9727 79.1335 11.5706C79.2847 12.1528 79.2696 12.7664 79.0881 13.4115C78.9217 14.0566 78.5738 14.6545 78.0444 15.2052C77.5301 15.7402 76.8192 16.1807 75.9116 16.5269C75.0192 16.8573 73.915 17.0147 72.599 16.9989C71.2831 16.9832 70.1864 16.7865 69.3091 16.4089C68.4318 16.0155 67.7587 15.5356 67.2898 14.9692C66.8209 14.387 66.541 13.7655 66.4503 13.1047C66.3747 12.4281 66.4654 11.7909 66.7225 11.193C66.9797 10.5793 67.3957 10.0522 67.9705 9.61168C68.5604 9.17112 69.2864 8.90364 70.1486 8.80923L70.3301 8.83283C69.5889 8.65976 68.9839 8.36081 68.515 7.93598C68.0461 7.51115 67.7209 7.03126 67.5394 6.49629C67.3578 5.94559 67.3125 5.37916 67.4032 4.79699C67.494 4.21482 67.7133 3.67986 68.0612 3.19209C68.4242 2.70433 68.9158 2.31097 69.536 2.01202C70.1562 1.69734 70.9049 1.54786 71.7822 1.56359C72.2209 1.56359 72.6671 1.62653 73.1209 1.75241C73.5747 1.86255 73.9831 2.04349 74.3461 2.29524C74.7242 2.54699 75.0343 2.86167 75.2763 3.2393C75.5183 3.61692 75.6394 4.07321 75.6394 4.60818C75.6394 4.92286 75.5637 5.15101 75.4125 5.29262C75.2763 5.43423 75.1251 5.50503 74.9587 5.50503C74.762 5.50503 74.5957 5.41063 74.4595 5.22182C74.3234 5.033 74.3007 4.75765 74.3915 4.39576C74.4822 4.01814 74.4822 3.68772 74.3915 3.40451C74.3007 3.10555 74.1419 2.86167 73.915 2.67286C73.7032 2.46832 73.4385 2.31884 73.1209 2.22443C72.8032 2.11429 72.4629 2.05922 72.0999 2.05922C71.7217 2.05922 71.336 2.12216 70.9427 2.24804C70.5494 2.37391 70.194 2.57059 69.8763 2.83807C69.5587 3.10555 69.3015 3.45171 69.1049 3.87653C68.9083 4.28563 68.8099 4.77339 68.8099 5.33982C68.8099 6.28388 69.0444 7.06273 69.5133 7.67636C69.9822 8.27427 70.6553 8.58109 71.5326 8.59682C71.7293 8.59682 71.8125 8.66762 71.7822 8.80923C71.7671 8.93511 71.6839 8.99804 71.5326 8.99804C70.8066 8.98231 70.1864 9.15539 69.6721 9.51727C69.173 9.86343 68.7948 10.304 68.5377 10.839C68.2805 11.3739 68.152 11.9561 68.152 12.5855C68.1671 13.2148 68.3335 13.8049 68.6511 14.3556C68.9688 14.8905 69.4452 15.339 70.0805 15.7008C70.731 16.0627 71.5629 16.2515 72.5763 16.2673C73.1814 16.2673 73.7713 16.2043 74.3461 16.0785C74.936 15.9369 75.4578 15.7244 75.9116 15.4412C76.3805 15.158 76.7663 14.7961 77.0688 14.3556C77.3864 13.915 77.5755 13.3958 77.636 12.7979C77.6965 12.2314 77.6738 11.7515 77.5679 11.3582C77.4772 10.9648 77.3335 10.6423 77.1368 10.3905C76.9553 10.123 76.7284 9.93423 76.4562 9.82409C76.1839 9.69822 75.8965 9.63528 75.594 9.63528C75.1856 9.63528 74.7696 9.74542 74.3461 9.9657C74.331 9.9657 74.3158 9.97357 74.3007 9.9893C73.9377 10.1466 73.6125 10.3355 73.3251 10.5557C73.1587 10.7445 73.0906 10.9176 73.1209 11.075C73.1511 11.2323 73.2116 11.3975 73.3024 11.5706C73.4083 11.7279 73.5142 11.8932 73.62 12.0662C73.741 12.2236 73.8015 12.4045 73.8015 12.6091C73.8015 12.908 73.7259 13.1362 73.5747 13.2935C73.4385 13.4508 73.2646 13.5295 73.0528 13.5295C72.6898 13.5295 72.4326 13.4036 72.2814 13.1519C72.1452 12.9001 72.0847 12.6012 72.0999 12.255C72.1301 11.9089 72.2284 11.5549 72.3948 11.193C72.5612 10.8154 72.7654 10.5085 73.0074 10.2725H73.0301C73.0604 10.2411 73.0831 10.2175 73.0982 10.2017C73.1133 10.1702 73.136 10.1466 73.1662 10.1309C73.4839 9.83196 73.8621 9.57234 74.3007 9.35206C74.7545 9.11605 75.2158 8.89577 75.6847 8.69123C76.1688 8.47094 76.6377 8.25066 77.0915 8.03039C77.5452 7.8101 77.931 7.56622 78.2486 7.29874C78.5814 7.03126 78.8083 6.72444 78.9293 6.37828C79.0654 6.03213 79.0503 5.63091 78.8839 5.17461C78.7326 4.76552 78.7402 4.45084 78.9066 4.23056C79.073 3.99454 79.2847 3.87653 79.5419 3.87653C79.7688 3.87653 79.9805 3.98667 80.1772 4.20695C80.3738 4.4115 80.457 4.74979 80.4268 5.22182C80.3814 5.75678 80.2377 6.22094 79.9957 6.6143C79.7688 7.00766 79.4738 7.35381 79.1108 7.65276C78.7629 7.95171 78.362 8.21133 77.9083 8.43161C77.4696 8.65189 77.0158 8.85643 76.5469 9.04525Z" fill="#EBEBEB"/>
<path d="M90.4537 16.2673C90.5747 16.283 90.6277 16.3538 90.6126 16.4797C90.6126 16.6056 90.552 16.6685 90.431 16.6685H86.5285C86.4075 16.6685 86.3394 16.6056 86.3243 16.4797C86.3243 16.3538 86.3848 16.283 86.5058 16.2673C86.6873 16.2358 86.8689 16.2122 87.0504 16.1965C87.247 16.165 87.4134 16.1099 87.5495 16.0313C87.7008 15.9369 87.8218 15.811 87.9126 15.6536C88.0033 15.4806 88.0487 15.2367 88.0487 14.922L88.1621 3.52251C88.1621 3.20783 88.1243 2.97181 88.0487 2.81447C87.9731 2.65713 87.8672 2.54699 87.731 2.48405C87.61 2.40538 87.4588 2.35818 87.2773 2.34244C87.1109 2.31097 86.9369 2.2795 86.7554 2.24804C86.6344 2.21657 86.5739 2.14576 86.5739 2.03562C86.589 1.90975 86.6571 1.84681 86.7781 1.84681H89.1831C89.4403 1.84681 89.6369 1.90188 89.7731 2.01202C89.9243 2.10643 90.0378 2.24804 90.1134 2.43685C90.31 2.89314 90.4991 3.34944 90.6806 3.80573C90.8773 4.24629 91.0739 4.69472 91.2705 5.15101L93.5621 10.5793C93.7588 11.0356 93.9479 11.4919 94.1294 11.9482C94.326 12.3888 94.5226 12.8372 94.7193 13.2935C94.7647 13.4036 94.8327 13.4587 94.9235 13.4587C95.0142 13.4587 95.0747 13.4036 95.105 13.2935L99.6655 1.84681H102.751C102.872 1.84681 102.933 1.90975 102.933 2.03562C102.948 2.14576 102.895 2.21657 102.774 2.24804C102.577 2.2795 102.388 2.30311 102.207 2.31884C102.04 2.33457 101.889 2.37391 101.753 2.43685C101.632 2.48405 101.534 2.58632 101.458 2.74367C101.382 2.88527 101.344 3.11342 101.344 3.42811V15.0872C101.344 15.3862 101.382 15.6143 101.458 15.7717C101.534 15.9133 101.632 16.0155 101.753 16.0785C101.889 16.1414 102.04 16.1807 102.207 16.1965C102.388 16.2122 102.577 16.2358 102.774 16.2673C102.895 16.283 102.948 16.3538 102.933 16.4797C102.933 16.5898 102.872 16.6449 102.751 16.6449H98.2815C98.1605 16.6449 98.0924 16.5898 98.0773 16.4797C98.0773 16.3538 98.1378 16.283 98.2588 16.2673C98.4403 16.2358 98.6142 16.2122 98.7806 16.1965C98.9621 16.1807 99.1134 16.1414 99.2344 16.0785C99.3705 16.0155 99.4764 15.9133 99.5521 15.7717C99.6277 15.6143 99.6655 15.3862 99.6655 15.0872V3.59332L94.9008 15.3232H94.1974C93.9857 15.3232 93.8268 15.2918 93.721 15.2288C93.6151 15.1501 93.5092 15.0479 93.4033 14.922L88.7974 3.92374L88.9109 14.922C88.9109 15.2367 88.9563 15.4806 89.047 15.6536C89.1378 15.811 89.2588 15.9369 89.41 16.0313C89.5613 16.1099 89.7277 16.165 89.9092 16.1965C90.0907 16.2122 90.2722 16.2358 90.4537 16.2673Z" fill="#EBEBEB"/>
<path d="M120.368 16.3617C119.551 16.7865 118.765 16.9989 118.008 16.9989C117.388 16.9989 116.859 16.8022 116.42 16.4089C115.981 15.9998 115.77 15.3075 115.785 14.332V8.00678C115.346 8.49455 114.854 8.90364 114.31 9.23406C113.765 9.56448 113.183 9.85556 112.563 10.1073V15.2052C112.563 15.7087 112.623 16.0313 112.744 16.1729C112.88 16.2988 113.062 16.3617 113.289 16.3617C113.41 16.3617 113.47 16.4168 113.47 16.5269C113.486 16.6213 113.433 16.6842 113.312 16.7157C113.039 16.7944 112.759 16.8337 112.472 16.8337C112.109 16.8337 111.776 16.7393 111.474 16.5505C111.171 16.3617 111.02 16.0077 111.02 15.4884V14.332C110.763 15.04 110.309 15.6536 109.659 16.1729C109.008 16.6921 108.116 16.9517 106.981 16.9517C106.482 16.9517 106.036 16.8809 105.643 16.7393C105.249 16.582 104.924 16.3774 104.667 16.1257C104.41 15.8739 104.213 15.5907 104.077 15.276C103.941 14.9456 103.873 14.6073 103.873 14.2612C103.873 13.5216 104.085 12.9316 104.508 12.4911C104.932 12.0505 105.476 11.6886 106.142 11.4054C106.822 11.1222 107.586 10.8862 108.433 10.6973C109.296 10.4928 110.158 10.2647 111.02 10.0129V8.71483C111.02 8.29 110.937 7.92811 110.77 7.62916C110.619 7.33021 110.415 7.08633 110.158 6.89752C109.916 6.70871 109.628 6.57496 109.296 6.49629C108.978 6.40189 108.645 6.35468 108.297 6.35468C107.707 6.35468 107.163 6.46482 106.664 6.6851C106.21 6.93685 105.96 7.25941 105.915 7.65276C105.885 8.04612 105.938 8.40801 106.074 8.73843C106.24 9.11605 106.233 9.42287 106.051 9.65888C105.87 9.8949 105.65 10.0129 105.393 10.0129C105.181 10.0129 104.985 9.9185 104.803 9.72969C104.622 9.54088 104.523 9.23406 104.508 8.80923C104.508 8.65189 104.546 8.45521 104.622 8.2192V8.19559C104.637 8.14839 104.659 8.09332 104.69 8.03039C104.705 7.99892 104.712 7.98318 104.712 7.98318L104.758 7.86518C104.758 7.84944 104.758 7.84157 104.758 7.84157C104.773 7.84157 104.78 7.83371 104.78 7.81797L104.985 7.44035C105.03 7.36168 105.075 7.29087 105.121 7.22794C105.166 7.165 105.227 7.09419 105.302 7.01552C105.423 6.88965 105.507 6.81098 105.552 6.77951C105.96 6.41762 106.437 6.15014 106.981 5.97706C107.541 5.80398 108.108 5.71744 108.683 5.71744C109.182 5.71744 109.659 5.78038 110.112 5.90626C110.581 6.03213 110.997 6.22094 111.36 6.47269C111.723 6.72444 112.011 7.03912 112.222 7.41675C112.449 7.79437 112.563 8.22706 112.563 8.71483V9.47007C113.531 9.06098 114.378 8.51815 115.104 7.84157C115.845 7.14927 116.344 6.19734 116.601 4.9858C116.617 4.90713 116.624 4.82846 116.624 4.74979C116.639 4.67112 116.654 4.59244 116.67 4.51377C116.67 4.4823 116.677 4.46657 116.692 4.46657C116.707 4.3407 116.715 4.22269 116.715 4.11255C116.73 3.98667 116.738 3.8608 116.738 3.73493C116.738 3.71919 116.738 3.70346 116.738 3.68772C116.753 3.67199 116.76 3.64839 116.76 3.61692C116.76 3.49104 116.76 3.36517 116.76 3.2393C116.775 3.09769 116.783 2.95608 116.783 2.81447C116.783 2.62566 116.874 2.53125 117.055 2.53125C117.237 2.53125 117.328 2.62566 117.328 2.81447V5.97706H119.029C119.241 5.97706 119.339 6.07147 119.324 6.26028C119.324 6.43335 119.226 6.51989 119.029 6.51989H117.328V14.3084C117.328 15.0164 117.433 15.5199 117.645 15.8189C117.872 16.1178 118.19 16.2673 118.598 16.2673C118.81 16.2673 119.052 16.2279 119.324 16.1493C119.596 16.0706 119.884 15.9683 120.186 15.8425C120.368 15.7638 120.489 15.8031 120.549 15.9605C120.625 16.1178 120.565 16.2515 120.368 16.3617ZM105.62 14.2848C105.62 14.8197 105.779 15.276 106.096 15.6536C106.429 16.0155 106.883 16.1965 107.458 16.1965C107.806 16.1965 108.184 16.1335 108.592 16.0077C109.001 15.8818 109.379 15.6615 109.727 15.3468C110.09 15.0164 110.392 14.5758 110.634 14.0251C110.876 13.4587 111.005 12.7507 111.02 11.901V10.6265C110.324 10.8311 109.651 11.0278 109.001 11.2166C108.35 11.4054 107.775 11.6335 107.276 11.901C106.777 12.1528 106.376 12.4675 106.074 12.8451C105.771 13.207 105.62 13.6869 105.62 14.2848Z" fill="#EBEBEB"/>
<path d="M130.682 14.7332C130.334 15.394 129.79 15.9211 129.049 16.3145C128.308 16.6921 127.476 16.8809 126.553 16.8809C125.918 16.8809 125.29 16.7865 124.67 16.5977C124.05 16.3932 123.49 16.0706 122.991 15.63C122.492 15.1895 122.083 14.623 121.766 13.9307C121.463 13.2227 121.304 12.3652 121.289 11.3582C121.274 10.5243 121.38 9.76902 121.607 9.09245C121.834 8.40014 122.159 7.8101 122.582 7.32234C123.006 6.81885 123.528 6.43335 124.148 6.16587C124.768 5.88266 125.464 5.74105 126.235 5.74105C126.931 5.74105 127.566 5.85905 128.141 6.09507C128.731 6.31535 129.238 6.6379 129.661 7.06273C130.085 7.47182 130.41 7.97531 130.637 8.57322C130.879 9.17112 131 9.83983 131 10.5793C131 10.7839 130.939 10.9648 130.818 11.1222C130.697 11.2638 130.508 11.3346 130.251 11.3346H123.013C123.013 12.2157 123.127 12.971 123.354 13.6003C123.581 14.214 123.876 14.7175 124.239 15.1108C124.602 15.4884 125.018 15.7717 125.487 15.9605C125.955 16.1335 126.432 16.2122 126.916 16.1965C127.582 16.1807 128.194 16.0391 128.754 15.7717C129.313 15.4884 129.767 15.04 130.115 14.4264C130.206 14.269 130.319 14.1904 130.455 14.1904C130.561 14.1904 130.645 14.2454 130.705 14.3556C130.766 14.4657 130.758 14.5916 130.682 14.7332ZM126.417 6.42549C125.313 6.45696 124.496 6.85818 123.966 7.62916C123.437 8.40014 123.134 9.415 123.059 10.6737H128.3C128.739 10.6737 129.049 10.5793 129.23 10.3905C129.412 10.186 129.503 9.88703 129.503 9.49367C129.503 9.10032 129.434 8.72269 129.298 8.36081C129.177 7.98318 128.981 7.65276 128.708 7.36954C128.451 7.08633 128.126 6.85818 127.733 6.6851C127.355 6.51203 126.916 6.42549 126.417 6.42549Z" fill="#EBEBEB"/>
</svg>
