<svg width="9" height="13" viewBox="0 0 9 13" fill="none" xmlns="http://www.w3.org/2000/svg">
<path d="M8.65837 12.8306C8.66246 12.8845 8.65763 12.9475 8.64403 13H1.78247C1.73966 12.863 1.75787 12.708 1.86075 12.5329C1.97952 12.3278 2.20814 12.1986 2.42262 12.0727C2.6524 11.9382 2.88122 11.7927 3.03989 11.5904C3.34156 11.2051 3.08988 10.7762 3.26154 10.3654C3.37004 10.1063 3.57754 9.99902 3.82496 9.95831L3.85421 9.67228C3.29564 9.64644 2.84518 9.62325 2.64872 9.61299C2.61667 9.61127 2.58577 9.6015 2.55941 9.58476C2.53305 9.56802 2.51227 9.54496 2.49934 9.51812L2.03493 8.55207C2.02309 8.52738 2.0183 8.50035 2.02101 8.47351C2.02372 8.44667 2.03384 8.4209 2.05043 8.39861L4.38004 5.27408L4.44747 4.91761L2.1225 5.33904C2.1225 5.33904 1.86695 5.64578 1.80786 6.01871C1.74876 6.39164 0.927855 6.38562 0.927855 6.38562L0 5.18559C0 5.18559 1.30586 3.21366 1.08944 2.78073L0.780414 2.16248C0.780414 2.16248 1.60229 1.66335 2.80585 1.37431L2.85138 0.0631185C2.8537 -0.00573326 2.96646 -0.0237869 3.01568 0.036746L3.95593 1.19059C3.98092 1.22015 4.52904 1.26174 4.61467 1.28988C5.24806 1.49829 5.8418 1.79607 6.37428 2.17239C7.53044 2.98648 8.33786 4.14488 8.65624 5.4463C8.72173 5.71463 9.19912 8.66765 8.9052 8.73207L7.98103 8.925C7.96689 9.3951 7.92194 9.69777 7.87524 9.73759C7.82138 9.78343 7.27908 9.78786 6.55912 9.77211L6.58721 10.0033C6.84102 10.0358 7.03729 10.116 7.16109 10.4095C7.33411 10.8196 7.08379 11.2495 7.387 11.6338C7.54626 11.8357 7.77624 11.9805 8.00583 12.1143C8.22147 12.2394 8.4499 12.3681 8.57022 12.5734C8.61918 12.6525 8.64923 12.7402 8.65837 12.8306Z" fill="#EBEBEB"/>
</svg>
