<svg width="170" height="45" viewBox="0 0 170 45" fill="none" xmlns="http://www.w3.org/2000/svg">
<path d="M52.6134 28.3084C51.963 29.1108 51.1765 29.7559 50.2538 30.2437C49.3311 30.7314 48.1815 30.9753 46.805 30.9753C45.0655 30.9753 43.6134 30.5977 42.4487 29.8425C41.2992 29.0715 40.437 28.1117 39.8622 26.9631C39.2874 25.8145 39 24.5793 39 23.2577C39 21.9202 39.2874 20.6772 39.8622 19.5286C40.437 18.38 41.2992 17.4281 42.4487 16.6729C43.6134 15.9019 45.0655 15.5164 46.805 15.5164C47.3798 15.5164 47.9244 15.5636 48.4387 15.658C48.9529 15.7524 49.4294 15.8861 49.8681 16.0592C49.9437 16.075 50.0571 16.1143 50.2084 16.1772V16.2008H50.2311C50.579 16.3424 50.9345 16.5313 51.2975 16.7673C51.6756 17.0033 51.9706 17.2472 52.1824 17.4989C52.3639 17.7192 52.4698 17.9395 52.5 18.1598C52.5303 18.3643 52.5076 18.5531 52.4319 18.7262C52.3714 18.8835 52.2731 19.0094 52.137 19.1038C52.0008 19.1982 51.8496 19.2454 51.6832 19.2454C51.5168 19.2454 51.3504 19.1982 51.184 19.1038C51.0176 18.9937 50.874 18.8127 50.7529 18.561C50.6773 18.4036 50.6244 18.2384 50.5941 18.0653C50.5639 17.8923 50.5109 17.7192 50.4353 17.5461C50.3597 17.373 50.2311 17.1921 50.0496 17.0033C49.8681 16.8145 49.5958 16.6335 49.2328 16.4604C48.8697 16.3346 48.4689 16.248 48.0303 16.2008C47.5916 16.1536 47.1832 16.13 46.805 16.13C45.5193 16.13 44.4378 16.4841 43.5605 17.1921C42.6832 17.8844 42.0252 18.7655 41.5866 19.8355C41.1479 20.8896 40.921 22.0304 40.9059 23.2577C40.9059 24.4849 41.1176 25.6335 41.5412 26.7035C41.9798 27.7577 42.6378 28.6388 43.5151 29.3468C44.3924 30.0391 45.4891 30.3853 46.805 30.3853C47.5916 30.3853 48.2571 30.3145 48.8017 30.1729C49.3613 30.0155 49.8378 29.8189 50.2311 29.5828C50.6244 29.3468 50.9496 29.0793 51.2067 28.7804C51.479 28.4657 51.7134 28.1589 51.9101 27.8599C52.0462 27.6554 52.1975 27.5531 52.3639 27.5531C52.5303 27.5531 52.6513 27.6318 52.7269 27.7891C52.8176 27.9465 52.7798 28.1196 52.6134 28.3084Z" fill="#EBEBEB"/>
<path d="M58.273 30.3617C58.394 30.3932 58.4469 30.4718 58.4318 30.5977C58.4318 30.7078 58.3713 30.7629 58.2503 30.7629H53.894C53.773 30.7629 53.7049 30.7078 53.6898 30.5977C53.6898 30.4718 53.7503 30.3932 53.8713 30.3617C54.0528 30.3302 54.2267 30.3066 54.3931 30.2909C54.5746 30.2751 54.7259 30.2437 54.8469 30.1965C54.983 30.1335 55.0889 30.0313 55.1645 29.8897C55.2402 29.7323 55.278 29.4963 55.278 29.1816V16.6021C55.278 16.2874 55.2629 16.0514 55.2326 15.894C55.2175 15.7209 55.1646 15.5951 55.0738 15.5164C54.983 15.4377 54.8545 15.3905 54.6881 15.3748C54.5368 15.359 54.3251 15.3512 54.0528 15.3512C53.9318 15.3512 53.8561 15.2961 53.8259 15.186C53.8108 15.0758 53.894 14.9893 54.0755 14.9264C54.499 14.8162 54.9225 14.6903 55.3461 14.5487C55.7847 14.4071 56.1931 14.2419 56.5713 14.0531C56.6318 14.0216 56.6923 14.0138 56.7528 14.0295C56.8133 14.0295 56.8435 14.0688 56.8435 14.1475V21.7236C57.2368 21.0627 57.7814 20.575 58.4772 20.2603C59.173 19.9299 59.8839 19.7646 60.6099 19.7646C61.0788 19.7646 61.5326 19.8355 61.9713 19.9771C62.4099 20.1029 62.7956 20.2996 63.1284 20.5671C63.4763 20.8188 63.7486 21.1414 63.9452 21.5348C64.157 21.9281 64.2629 22.3844 64.2629 22.9036V29.1816C64.2629 29.4963 64.3007 29.7323 64.3763 29.8897C64.4519 30.0313 64.5503 30.1335 64.6713 30.1965C64.8074 30.2437 64.9587 30.2751 65.1251 30.2909C65.3066 30.3066 65.4956 30.3302 65.6923 30.3617C65.7982 30.3932 65.8511 30.4718 65.8511 30.5977C65.8511 30.7078 65.7906 30.7629 65.6696 30.7629H61.2906C61.1696 30.7629 61.1091 30.7078 61.1091 30.5977C61.1091 30.4718 61.162 30.3932 61.2679 30.3617C61.4646 30.3302 61.6461 30.3066 61.8125 30.2909C61.994 30.2751 62.1452 30.2437 62.2662 30.1965C62.4024 30.1335 62.5082 30.0313 62.5839 29.8897C62.6595 29.7323 62.6973 29.4963 62.6973 29.1816V22.9036C62.6973 22.1327 62.4402 21.5662 61.9259 21.2043C61.4267 20.8424 60.8368 20.6615 60.1561 20.6615C59.7629 20.6615 59.3696 20.7244 58.9763 20.8503C58.583 20.9762 58.2276 21.165 57.9099 21.4167C57.5923 21.6528 57.3351 21.9517 57.1385 22.3136C56.9419 22.6755 56.8435 23.0924 56.8435 23.5645V29.1816C56.8435 29.4963 56.8814 29.7323 56.957 29.8897C57.0326 30.0313 57.1309 30.1335 57.2519 30.1965C57.3881 30.2437 57.5393 30.2751 57.7057 30.2909C57.8872 30.3066 58.0763 30.3302 58.273 30.3617Z" fill="#EBEBEB"/>
<path d="M75.7354 28.7332C75.3875 29.394 74.843 29.9211 74.1018 30.3145C73.3606 30.6921 72.5287 30.8809 71.606 30.8809C70.9707 30.8809 70.343 30.7865 69.7228 30.5977C69.1026 30.3932 68.543 30.0706 68.0438 29.63C67.5446 29.1895 67.1362 28.623 66.8186 27.9307C66.5161 27.2227 66.3572 26.3652 66.3421 25.3582C66.327 24.5243 66.4329 23.769 66.6598 23.0924C66.8867 22.4001 67.2119 21.8101 67.6354 21.3223C68.0589 20.8188 68.5808 20.4334 69.2009 20.1659C69.8211 19.8827 70.5169 19.741 71.2883 19.741C71.9841 19.741 72.6194 19.8591 73.1942 20.0951C73.7841 20.3153 74.2909 20.6379 74.7144 21.0627C75.1379 21.4718 75.4631 21.9753 75.69 22.5732C75.932 23.1711 76.053 23.8398 76.053 24.5793C76.053 24.7839 75.9925 24.9648 75.8715 25.1222C75.7505 25.2638 75.5614 25.3346 75.3043 25.3346H68.0665C68.0665 26.2157 68.1799 26.971 68.4068 27.6003C68.6337 28.214 68.9287 28.7175 69.2917 29.1108C69.6547 29.4884 70.0707 29.7717 70.5396 29.9605C71.0085 30.1335 71.485 30.2122 71.969 30.1965C72.6345 30.1807 73.2472 30.0391 73.8068 29.7717C74.3665 29.4884 74.8203 29.04 75.1682 28.4264C75.2589 28.269 75.3724 28.1904 75.5085 28.1904C75.6144 28.1904 75.6976 28.2454 75.7581 28.3556C75.8186 28.4657 75.811 28.5916 75.7354 28.7332ZM71.4698 20.4255C70.3656 20.457 69.5488 20.8582 69.0194 21.6292C68.49 22.4001 68.1875 23.415 68.1119 24.6737H73.353C73.7917 24.6737 74.1018 24.5793 74.2833 24.3905C74.4648 24.186 74.5556 23.887 74.5556 23.4937C74.5556 23.1003 74.4875 22.7227 74.3514 22.3608C74.2303 21.9832 74.0337 21.6528 73.7614 21.3695C73.5043 21.0863 73.1791 20.8582 72.7858 20.6851C72.4077 20.512 71.969 20.4255 71.4698 20.4255Z" fill="#EBEBEB"/>
<path d="M86.9496 28.7332C86.6017 29.394 86.0345 29.9211 85.248 30.3145C84.4614 30.6921 83.6068 30.8809 82.6841 30.8809C82.0488 30.8809 81.4211 30.7865 80.8009 30.5977C80.1807 30.3932 79.6211 30.0706 79.1219 29.63C78.6379 29.1895 78.237 28.623 77.9194 27.9307C77.6169 27.2227 77.458 26.3652 77.4429 25.3582C77.4278 24.5243 77.5412 23.769 77.7833 23.0924C78.0404 22.4001 78.3959 21.8101 78.8496 21.3223C79.3186 20.8188 79.8707 20.4334 80.5059 20.1659C81.1564 19.8827 81.8673 19.741 82.6387 19.741C83.1984 19.741 83.7354 19.8276 84.2496 20.0007C84.7639 20.1737 85.2328 20.4412 85.6564 20.8031H85.6791C85.6791 20.8188 85.6942 20.8424 85.7244 20.8739C85.7547 20.9054 85.8228 20.9762 85.9286 21.0863C86.0345 21.1807 86.1026 21.2437 86.1328 21.2751L86.1782 21.3223L86.2917 21.464C86.2917 21.464 86.3068 21.4797 86.337 21.5112C86.3824 21.5898 86.4505 21.6921 86.5412 21.818C86.5715 21.8494 86.5866 21.8652 86.5866 21.8652V21.8888C86.7681 22.1877 86.874 22.4631 86.9043 22.7148C86.9345 23.1711 86.8589 23.5015 86.6774 23.7061C86.4959 23.9106 86.2917 24.0129 86.0648 24.0129C85.8228 24.0129 85.611 23.9106 85.4295 23.7061C85.248 23.4858 85.2177 23.1869 85.3387 22.8092C85.4295 22.5103 85.4446 22.1956 85.3841 21.8652C85.3387 21.519 85.1648 21.2358 84.8622 21.0155C84.832 20.9841 84.8093 20.9683 84.7942 20.9683C84.7337 20.8896 84.6429 20.8424 84.5219 20.8267H84.5446C84.0303 20.5592 83.5085 20.4255 82.9791 20.4255C81.7236 20.4255 80.7707 20.8739 80.1202 21.7708C79.4849 22.6519 79.1673 23.832 79.1673 25.311C79.1673 26.1921 79.2807 26.9473 79.5076 27.5767C79.7345 28.2061 80.0295 28.7175 80.3925 29.1108C80.7555 29.4884 81.1715 29.7717 81.6404 29.9605C82.1093 30.1335 82.5858 30.2122 83.0698 30.1965C83.7202 30.1807 84.348 30.0391 84.953 29.7717C85.558 29.4884 86.0345 29.04 86.3824 28.4264C86.4732 28.269 86.5866 28.1904 86.7228 28.1904C86.8286 28.1904 86.9118 28.2454 86.9723 28.3556C87.0328 28.4657 87.0253 28.5916 86.9496 28.7332Z" fill="#EBEBEB"/>
<path d="M92.2844 30.3617C92.4054 30.3932 92.4584 30.4718 92.4432 30.5977C92.4432 30.7078 92.3827 30.7629 92.2617 30.7629H87.9054C87.7844 30.7629 87.7163 30.7078 87.7012 30.5977C87.7012 30.4718 87.7617 30.3932 87.8827 30.3617C88.0794 30.3302 88.2609 30.3066 88.4273 30.2909C88.6088 30.2751 88.76 30.2437 88.8811 30.1965C89.0172 30.1335 89.1231 30.0313 89.1987 29.8897C89.2743 29.7323 89.3121 29.4963 89.3121 29.1816V16.6021C89.3121 16.2874 89.297 16.0514 89.2668 15.894C89.2365 15.7209 89.176 15.5951 89.0853 15.5164C89.0096 15.4377 88.8886 15.3905 88.7222 15.3748C88.571 15.359 88.3592 15.3512 88.0869 15.3512C87.9659 15.3512 87.8903 15.2961 87.86 15.186C87.8449 15.0758 87.9281 14.9893 88.1096 14.9264C88.518 14.8162 88.934 14.6903 89.3575 14.5487C89.7962 14.4071 90.2046 14.2419 90.5827 14.0531C90.7642 13.9587 90.855 13.9902 90.855 14.1475V26.8687L95.5063 21.2043L95.4836 21.2279C95.6348 21.0391 95.7029 20.8896 95.6878 20.7795C95.6878 20.6694 95.6273 20.5828 95.5063 20.5199C95.4004 20.457 95.2491 20.4176 95.0525 20.4019C94.871 20.3704 94.6743 20.3468 94.4626 20.3311C94.3416 20.3153 94.2811 20.2445 94.2811 20.1187C94.2962 19.9928 94.3642 19.9299 94.4853 19.9299H98.6827C98.8037 19.9299 98.8642 19.9928 98.8642 20.1187C98.8794 20.2445 98.834 20.3153 98.7281 20.3311C98.0626 20.3783 97.5407 20.4963 97.1626 20.6851C96.7995 20.8582 96.4214 21.1729 96.0281 21.6292C95.6348 22.1169 95.1962 22.6519 94.7121 23.2341C94.2432 23.8005 93.7743 24.3669 93.3054 24.9334L97.2987 29.3232V29.2996C97.5407 29.5514 97.7449 29.7481 97.9113 29.8897C98.0928 30.0155 98.2592 30.1099 98.4105 30.1729C98.5617 30.2358 98.713 30.283 98.8642 30.3145C99.0155 30.3302 99.1819 30.3538 99.3634 30.3853C99.4844 30.401 99.5374 30.4718 99.5222 30.5977C99.5222 30.7078 99.4617 30.7629 99.3407 30.7629H95.1659C95.0449 30.7629 94.9768 30.7078 94.9617 30.5977C94.9617 30.4718 95.0222 30.401 95.1432 30.3853C95.4458 30.3224 95.6273 30.2279 95.6878 30.1021C95.7634 29.9762 95.6424 29.7402 95.3247 29.394L92.6928 26.5147C92.5869 26.4045 92.4659 26.3494 92.3298 26.3494C92.2088 26.3494 92.1105 26.3888 92.0348 26.4675C91.8079 26.7349 91.5962 26.9867 91.3995 27.2227C91.2029 27.4587 91.0214 27.6711 90.855 27.8599V29.1816C90.855 29.4963 90.8928 29.7323 90.9684 29.8897C91.0441 30.0313 91.15 30.1335 91.2861 30.1965C91.4222 30.2437 91.5735 30.2751 91.7399 30.2909C91.9214 30.3066 92.1029 30.3302 92.2844 30.3617Z" fill="#EBEBEB"/>
<path d="M115.547 23.0452C116.243 23.2026 116.81 23.5173 117.249 23.9893C117.687 24.4456 117.982 24.9727 118.133 25.5706C118.285 26.1528 118.27 26.7664 118.088 27.4115C117.922 28.0566 117.574 28.6545 117.044 29.2052C116.53 29.7402 115.819 30.1807 114.912 30.5269C114.019 30.8573 112.915 31.0147 111.599 30.9989C110.283 30.9832 109.186 30.7865 108.309 30.4089C107.432 30.0155 106.759 29.5356 106.29 28.9692C105.821 28.387 105.541 27.7655 105.45 27.1047C105.375 26.4281 105.465 25.7909 105.723 25.193C105.98 24.5793 106.396 24.0522 106.97 23.6117C107.56 23.1711 108.286 22.9036 109.149 22.8092L109.33 22.8328C108.589 22.6598 107.984 22.3608 107.515 21.936C107.046 21.5112 106.721 21.0313 106.539 20.4963C106.358 19.9456 106.312 19.3792 106.403 18.797C106.494 18.2148 106.713 17.6799 107.061 17.1921C107.424 16.7043 107.916 16.311 108.536 16.012C109.156 15.6973 109.905 15.5479 110.782 15.5636C111.221 15.5636 111.667 15.6265 112.121 15.7524C112.575 15.8625 112.983 16.0435 113.346 16.2952C113.724 16.547 114.034 16.8617 114.276 17.2393C114.518 17.6169 114.639 18.0732 114.639 18.6082C114.639 18.9229 114.564 19.151 114.412 19.2926C114.276 19.4342 114.125 19.505 113.959 19.505C113.762 19.505 113.596 19.4106 113.46 19.2218C113.323 19.033 113.301 18.7577 113.391 18.3958C113.482 18.0181 113.482 17.6877 113.391 17.4045C113.301 17.1056 113.142 16.8617 112.915 16.6729C112.703 16.4683 112.439 16.3188 112.121 16.2244C111.803 16.1143 111.463 16.0592 111.1 16.0592C110.722 16.0592 110.336 16.1222 109.943 16.248C109.549 16.3739 109.194 16.5706 108.876 16.8381C108.559 17.1056 108.302 17.4517 108.105 17.8765C107.908 18.2856 107.81 18.7734 107.81 19.3398C107.81 20.2839 108.044 21.0627 108.513 21.6764C108.982 22.2743 109.655 22.5811 110.533 22.5968C110.729 22.5968 110.812 22.6676 110.782 22.8092C110.767 22.9351 110.684 22.998 110.533 22.998C109.807 22.9823 109.186 23.1554 108.672 23.5173C108.173 23.8634 107.795 24.304 107.538 24.839C107.281 25.3739 107.152 25.9561 107.152 26.5855C107.167 27.2148 107.333 27.8049 107.651 28.3556C107.969 28.8905 108.445 29.339 109.081 29.7008C109.731 30.0627 110.563 30.2515 111.576 30.2673C112.181 30.2673 112.771 30.2043 113.346 30.0785C113.936 29.9369 114.458 29.7244 114.912 29.4412C115.381 29.158 115.766 28.7961 116.069 28.3556C116.386 27.915 116.575 27.3958 116.636 26.7979C116.697 26.2314 116.674 25.7515 116.568 25.3582C116.477 24.9648 116.333 24.6423 116.137 24.3905C115.955 24.123 115.728 23.9342 115.456 23.8241C115.184 23.6982 114.896 23.6353 114.594 23.6353C114.186 23.6353 113.77 23.7454 113.346 23.9657C113.331 23.9657 113.316 23.9736 113.301 23.9893C112.938 24.1466 112.612 24.3355 112.325 24.5557C112.159 24.7445 112.091 24.9176 112.121 25.075C112.151 25.2323 112.212 25.3975 112.302 25.5706C112.408 25.7279 112.514 25.8932 112.62 26.0662C112.741 26.2236 112.802 26.4045 112.802 26.6091C112.802 26.908 112.726 27.1362 112.575 27.2935C112.439 27.4508 112.265 27.5295 112.053 27.5295C111.69 27.5295 111.433 27.4036 111.281 27.1519C111.145 26.9001 111.085 26.6012 111.1 26.255C111.13 25.9089 111.228 25.5549 111.395 25.193C111.561 24.8154 111.765 24.5085 112.007 24.2725H112.03C112.06 24.2411 112.083 24.2175 112.098 24.2017C112.113 24.1702 112.136 24.1466 112.166 24.1309C112.484 23.832 112.862 23.5723 113.301 23.3521C113.754 23.116 114.216 22.8958 114.685 22.6912C115.169 22.4709 115.638 22.2507 116.091 22.0304C116.545 21.8101 116.931 21.5662 117.249 21.2987C117.581 21.0313 117.808 20.7244 117.929 20.3783C118.065 20.0321 118.05 19.6309 117.884 19.1746C117.733 18.7655 117.74 18.4508 117.907 18.2306C118.073 17.9945 118.285 17.8765 118.542 17.8765C118.769 17.8765 118.981 17.9867 119.177 18.207C119.374 18.4115 119.457 18.7498 119.427 19.2218C119.381 19.7568 119.238 20.2209 118.996 20.6143C118.769 21.0077 118.474 21.3538 118.111 21.6528C117.763 21.9517 117.362 22.2113 116.908 22.4316C116.47 22.6519 116.016 22.8564 115.547 23.0452Z" fill="#EBEBEB"/>
<path d="M129.454 30.2673C129.575 30.283 129.628 30.3538 129.613 30.4797C129.613 30.6056 129.552 30.6685 129.431 30.6685H125.529C125.408 30.6685 125.339 30.6056 125.324 30.4797C125.324 30.3538 125.385 30.283 125.506 30.2673C125.687 30.2358 125.869 30.2122 126.05 30.1965C126.247 30.165 126.413 30.1099 126.55 30.0313C126.701 29.9369 126.822 29.811 126.913 29.6536C127.003 29.4806 127.049 29.2367 127.049 28.922L127.162 17.5225C127.162 17.2078 127.124 16.9718 127.049 16.8145C126.973 16.6571 126.867 16.547 126.731 16.4841C126.61 16.4054 126.459 16.3582 126.277 16.3424C126.111 16.311 125.937 16.2795 125.755 16.248C125.634 16.2166 125.574 16.1458 125.574 16.0356C125.589 15.9097 125.657 15.8468 125.778 15.8468H128.183C128.44 15.8468 128.637 15.9019 128.773 16.012C128.924 16.1064 129.038 16.248 129.113 16.4368C129.31 16.8931 129.499 17.3494 129.681 17.8057C129.877 18.2463 130.074 18.6947 130.271 19.151L132.562 24.5793C132.759 25.0356 132.948 25.4919 133.129 25.9482C133.326 26.3888 133.523 26.8372 133.719 27.2935C133.765 27.4036 133.833 27.4587 133.923 27.4587C134.014 27.4587 134.075 27.4036 134.105 27.2935L138.665 15.8468H141.751C141.872 15.8468 141.933 15.9097 141.933 16.0356C141.948 16.1458 141.895 16.2166 141.774 16.248C141.577 16.2795 141.388 16.3031 141.207 16.3188C141.04 16.3346 140.889 16.3739 140.753 16.4368C140.632 16.484 140.534 16.5863 140.458 16.7437C140.382 16.8853 140.344 17.1134 140.344 17.4281V29.0872C140.344 29.3862 140.382 29.6143 140.458 29.7717C140.534 29.9133 140.632 30.0155 140.753 30.0785C140.889 30.1414 141.04 30.1807 141.207 30.1965C141.388 30.2122 141.577 30.2358 141.774 30.2673C141.895 30.283 141.948 30.3538 141.933 30.4797C141.933 30.5898 141.872 30.6449 141.751 30.6449H137.281C137.16 30.6449 137.092 30.5898 137.077 30.4797C137.077 30.3538 137.138 30.283 137.259 30.2673C137.44 30.2358 137.614 30.2122 137.781 30.1965C137.962 30.1807 138.113 30.1414 138.234 30.0785C138.371 30.0155 138.476 29.9133 138.552 29.7717C138.628 29.6143 138.665 29.3862 138.665 29.0872V17.5933L133.901 29.3232H133.197C132.986 29.3232 132.827 29.2918 132.721 29.2288C132.615 29.1501 132.509 29.0479 132.403 28.922L127.797 17.9237L127.911 28.922C127.911 29.2367 127.956 29.4806 128.047 29.6536C128.138 29.811 128.259 29.9369 128.41 30.0313C128.561 30.1099 128.728 30.165 128.909 30.1965C129.091 30.2122 129.272 30.2358 129.454 30.2673Z" fill="#EBEBEB"/>
<path d="M159.368 30.3617C158.551 30.7865 157.765 30.9989 157.008 30.9989C156.388 30.9989 155.859 30.8022 155.42 30.4089C154.981 29.9998 154.77 29.3075 154.785 28.332V22.0068C154.346 22.4945 153.854 22.9036 153.31 23.2341C152.765 23.5645 152.183 23.8556 151.563 24.1073V29.2052C151.563 29.7087 151.623 30.0313 151.744 30.1729C151.88 30.2988 152.062 30.3617 152.289 30.3617C152.41 30.3617 152.47 30.4168 152.47 30.5269C152.486 30.6213 152.433 30.6842 152.312 30.7157C152.039 30.7944 151.759 30.8337 151.472 30.8337C151.109 30.8337 150.776 30.7393 150.474 30.5505C150.171 30.3617 150.02 30.0077 150.02 29.4884V28.332C149.763 29.04 149.309 29.6536 148.659 30.1729C148.008 30.6921 147.116 30.9517 145.981 30.9517C145.482 30.9517 145.036 30.8809 144.643 30.7393C144.249 30.582 143.924 30.3774 143.667 30.1257C143.41 29.8739 143.213 29.5907 143.077 29.276C142.941 28.9456 142.873 28.6073 142.873 28.2612C142.873 27.5216 143.085 26.9316 143.508 26.4911C143.932 26.0505 144.476 25.6886 145.142 25.4054C145.822 25.1222 146.586 24.8862 147.433 24.6973C148.296 24.4928 149.158 24.2647 150.02 24.0129V22.7148C150.02 22.29 149.937 21.9281 149.77 21.6292C149.619 21.3302 149.415 21.0863 149.158 20.8975C148.916 20.7087 148.628 20.575 148.296 20.4963C147.978 20.4019 147.645 20.3547 147.297 20.3547C146.707 20.3547 146.163 20.4648 145.664 20.6851C145.21 20.9369 144.96 21.2594 144.915 21.6528C144.885 22.0461 144.938 22.408 145.074 22.7384C145.24 23.1161 145.233 23.4229 145.051 23.6589C144.87 23.8949 144.65 24.0129 144.393 24.0129C144.181 24.0129 143.985 23.9185 143.803 23.7297C143.622 23.5409 143.523 23.2341 143.508 22.8092C143.508 22.6519 143.546 22.4552 143.622 22.2192V22.1956C143.637 22.1484 143.659 22.0933 143.69 22.0304C143.705 21.9989 143.712 21.9832 143.712 21.9832L143.758 21.8652C143.758 21.8494 143.758 21.8416 143.758 21.8416C143.773 21.8416 143.78 21.8337 143.78 21.818L143.985 21.4403C144.03 21.3617 144.075 21.2909 144.121 21.2279C144.166 21.165 144.227 21.0942 144.302 21.0155C144.423 20.8896 144.507 20.811 144.552 20.7795C144.96 20.4176 145.437 20.1501 145.981 19.9771C146.541 19.804 147.108 19.7174 147.683 19.7174C148.182 19.7174 148.659 19.7804 149.112 19.9063C149.581 20.0321 149.997 20.2209 150.36 20.4727C150.723 20.7244 151.011 21.0391 151.222 21.4167C151.449 21.7944 151.563 22.2271 151.563 22.7148V23.4701C152.531 23.061 153.378 22.5181 154.104 21.8416C154.845 21.1493 155.344 20.1973 155.601 18.9858C155.617 18.9071 155.624 18.8285 155.624 18.7498C155.639 18.6711 155.654 18.5924 155.67 18.5138C155.67 18.4823 155.677 18.4666 155.692 18.4666C155.707 18.3407 155.715 18.2227 155.715 18.1125C155.73 17.9867 155.738 17.8608 155.738 17.7349C155.738 17.7192 155.738 17.7035 155.738 17.6877C155.753 17.672 155.76 17.6484 155.76 17.6169C155.76 17.491 155.76 17.3652 155.76 17.2393C155.775 17.0977 155.783 16.9561 155.783 16.8145C155.783 16.6257 155.874 16.5313 156.055 16.5313C156.237 16.5313 156.328 16.6257 156.328 16.8145V19.9771H158.029C158.241 19.9771 158.339 20.0715 158.324 20.2603C158.324 20.4334 158.226 20.5199 158.029 20.5199H156.328V28.3084C156.328 29.0164 156.433 29.5199 156.645 29.8189C156.872 30.1178 157.19 30.2673 157.598 30.2673C157.81 30.2673 158.052 30.2279 158.324 30.1493C158.596 30.0706 158.884 29.9683 159.186 29.8425C159.368 29.7638 159.489 29.8031 159.549 29.9605C159.625 30.1178 159.565 30.2515 159.368 30.3617ZM144.62 28.2848C144.62 28.8197 144.779 29.276 145.096 29.6536C145.429 30.0155 145.883 30.1965 146.458 30.1965C146.806 30.1965 147.184 30.1335 147.592 30.0077C148.001 29.8818 148.379 29.6615 148.727 29.3468C149.09 29.0164 149.392 28.5758 149.634 28.0251C149.876 27.4587 150.005 26.7507 150.02 25.901V24.6265C149.324 24.8311 148.651 25.0278 148.001 25.2166C147.35 25.4054 146.775 25.6335 146.276 25.901C145.777 26.1528 145.376 26.4675 145.074 26.8451C144.771 27.207 144.62 27.6869 144.62 28.2848Z" fill="#EBEBEB"/>
<path d="M169.682 28.7332C169.334 29.394 168.79 29.9211 168.049 30.3145C167.308 30.6921 166.476 30.8809 165.553 30.8809C164.918 30.8809 164.29 30.7865 163.67 30.5977C163.05 30.3932 162.49 30.0706 161.991 29.63C161.492 29.1895 161.083 28.623 160.766 27.9307C160.463 27.2227 160.304 26.3652 160.289 25.3582C160.274 24.5243 160.38 23.769 160.607 23.0924C160.834 22.4001 161.159 21.8101 161.582 21.3223C162.006 20.8188 162.528 20.4334 163.148 20.1659C163.768 19.8827 164.464 19.741 165.235 19.741C165.931 19.741 166.566 19.8591 167.141 20.0951C167.731 20.3153 168.238 20.6379 168.661 21.0627C169.085 21.4718 169.41 21.9753 169.637 22.5732C169.879 23.1711 170 23.8398 170 24.5793C170 24.7839 169.939 24.9648 169.818 25.1222C169.697 25.2638 169.508 25.3346 169.251 25.3346H162.013C162.013 26.2157 162.127 26.971 162.354 27.6003C162.581 28.214 162.876 28.7175 163.239 29.1108C163.602 29.4884 164.018 29.7717 164.487 29.9605C164.955 30.1335 165.432 30.2122 165.916 30.1965C166.582 30.1807 167.194 30.0391 167.754 29.7717C168.313 29.4884 168.767 29.04 169.115 28.4264C169.206 28.269 169.319 28.1904 169.455 28.1904C169.561 28.1904 169.645 28.2454 169.705 28.3556C169.766 28.4657 169.758 28.5916 169.682 28.7332ZM165.417 20.4255C164.313 20.457 163.496 20.8582 162.966 21.6292C162.437 22.4001 162.134 23.415 162.059 24.6737H167.3C167.739 24.6737 168.049 24.5793 168.23 24.3905C168.412 24.186 168.503 23.887 168.503 23.4937C168.503 23.1003 168.434 22.7227 168.298 22.3608C168.177 21.9832 167.981 21.6528 167.708 21.3695C167.451 21.0863 167.126 20.8582 166.733 20.6851C166.355 20.512 165.916 20.4255 165.417 20.4255Z" fill="#EBEBEB"/>
<path d="M26.9999 43.0805C26.9993 42.6653 26.8562 42.2624 26.5938 41.9369C26.3314 41.6113 25.965 41.3821 25.5537 41.2861C25.5939 41.1191 25.6082 40.9471 25.5961 40.7759C25.5691 40.4885 25.4803 40.2099 25.3355 39.9586C24.9798 39.3061 24.3045 38.8972 23.667 38.4995C22.9883 38.0743 22.3085 37.6141 21.8376 36.9723C20.9413 35.7511 21.6813 34.3848 21.1698 33.0815C20.8038 32.1489 20.2236 31.8941 19.4733 31.7906L19.3902 31.0559C21.5186 31.106 23.1218 31.0919 23.281 30.9463C23.419 30.8197 23.5519 29.8578 23.5937 28.3638L26.3258 27.7507C27.1947 27.5459 25.7834 18.1612 25.5898 17.3085C24.6486 13.1725 22.2617 9.49109 18.8438 6.9039C17.2697 5.70796 15.5145 4.76161 13.642 4.09928C13.3889 4.00984 11.7685 3.87765 11.6946 3.78371L8.91502 0.116779C8.76954 -0.0755954 8.43619 -0.0182204 8.42932 0.200592L8.29472 4.36759C4.73673 5.28615 2.30708 6.8724 2.30708 6.8724L3.22063 8.83721C3.86041 10.2131 0 16.4799 0 16.4799L2.74295 20.2936C2.74295 20.2936 5.16974 20.3128 5.34443 19.1276C5.51912 17.9424 6.27459 16.9676 6.27459 16.9676L13.1477 15.6283L12.9484 16.7611L6.06153 26.6909C6.0125 26.7618 5.98258 26.8437 5.97457 26.929C5.96656 27.0143 5.98071 27.1002 6.01571 27.1786L7.38861 30.2488C7.42683 30.3341 7.48828 30.4074 7.5662 30.4606C7.64412 30.5137 7.73548 30.5448 7.83021 30.5503C8.41099 30.5829 9.74266 30.6566 11.3939 30.7387L11.3074 31.6477C10.576 31.7771 9.9626 32.1179 9.64185 32.9414C9.13439 34.247 9.8784 35.6099 8.98661 36.8345C8.51752 37.4774 7.84109 37.9398 7.1618 38.3673C6.52775 38.7673 5.8519 39.1779 5.50079 39.8298C5.19666 40.3861 5.14282 40.8789 5.2694 41.3142C4.85421 41.4082 4.48377 41.6378 4.21867 41.9654C3.95357 42.2929 3.80949 42.6992 3.81 43.1176V43.1547C3.81068 43.3976 3.86005 43.6379 3.95528 43.8619C4.05052 44.086 4.18977 44.2894 4.36507 44.4607C4.54037 44.6319 4.74829 44.7675 4.97696 44.8598C5.20564 44.9521 5.45059 44.9993 5.69782 44.9986L25.1213 44.9677C25.6203 44.9668 26.0986 44.7713 26.4509 44.4241C26.8032 44.077 27.0007 43.6066 26.9999 43.1165V43.0805Z" fill="#D3CEC1"/>
<g style="mix-blend-mode:multiply" opacity="0.2">
<path d="M11.3915 30.7386L19.3901 31.057L19.4731 31.7916L11.3915 31.0024V30.7386Z" fill="#0E121C"/>
</g>
<g style="mix-blend-mode:multiply" opacity="0.2">
<path d="M23.5937 28.3648C23.7759 28.3243 23.1676 23.7742 23.1029 23.3147C22.8594 21.5923 22.5175 19.88 22.0043 18.2145C20.9544 14.8085 19.1932 11.5207 16.3065 9.29211C14.3047 7.74805 11.7817 6.3868 9.14697 6.41436C11.123 6.39355 13.1981 6.63936 15.0773 7.23955C18.4309 8.3083 20.6801 11.4504 22.2529 14.3833C23.7237 17.1256 24.6579 20.1144 25.0073 23.1948C25.0462 23.543 25.6093 27.8822 25.3784 27.9665L23.5937 28.3648Z" fill="#0E121C"/>
</g>
</svg>
