<svg width="29" height="26" viewBox="0 0 29 26" fill="none" xmlns="http://www.w3.org/2000/svg">
<path d="M8.38108 21.513C9.31755 22.5118 10.4425 23.3148 11.699 23.8618L12.2151 24.0866C15.0124 25.3045 18.1554 25.3045 20.9527 24.0866C23.7499 22.8686 25.9723 20.5325 27.131 17.5922C28.2897 14.6519 28.2897 11.3481 27.131 8.4078C25.9723 5.46746 23.7499 3.13137 20.9527 1.91345C18.1554 0.695518 15.0124 0.695518 12.2151 1.91345C9.41788 3.13137 7.19546 5.46746 6.0368 8.4078C5.62654 9.44891 5.36154 10.5356 5.24181 11.6355M5.24094 11.6435C5.23944 11.6575 5.23795 11.6714 5.23649 11.6854M1.84185 11.6854H9.25924C10.0077 11.6854 10.3826 12.6367 9.85332 13.193L6.48671 16.7318C5.96968 17.2753 5.13141 17.2753 4.61438 16.7318L1.24776 13.193C0.718487 12.6367 1.09334 11.6854 1.84185 11.6854Z" stroke="#EBEBEB" stroke-linecap="round" stroke-linejoin="round"/>
</svg>
