<svg width="33" height="53" viewBox="0 0 33 53" fill="none" xmlns="http://www.w3.org/2000/svg">
<path d="M17.8368 5.15809C18.7538 4.71516 19.3848 3.78883 19.3848 2.71795C19.3848 1.21686 18.1449 0 16.6156 0C15.0863 0 13.8464 1.21686 13.8464 2.71795C13.8464 3.79181 14.481 4.72025 15.402 5.16174C11.5736 9.40223 0 23.0496 0 33.0684C0 39.3541 4.22596 45.3361 9.9233 48.0623H4.15407L2.30792 53H30.9233L29.0771 48.0623H23.1112C28.7995 45.3359 33 39.353 33 33.0684C33 27.6422 29.8914 21.3995 26.3821 16.0812L17.5387 24.688L15.231 22.4231L24.4618 13.3062C21.853 9.70006 19.2913 6.75683 17.8368 5.15809Z" fill="#0B0F17"/>
</svg>
