<svg width="53" height="53" viewBox="0 0 53 53" fill="none" xmlns="http://www.w3.org/2000/svg">
<path d="M26.8343 5.06515C28.207 5.00432 29.3008 3.89421 29.3008 2.53386C29.3008 1.13444 28.1432 0 26.7154 0C25.2877 0 24.1301 1.13444 24.1301 2.53386C24.1301 3.75131 25.0062 4.76821 26.1741 5.01205L23.0528 24.7052L13.7505 11.2122C14.3014 10.7475 14.6504 10.0591 14.6504 9.29084C14.6504 7.89142 13.4928 6.75697 12.065 6.75697C10.6373 6.75697 9.47968 7.89142 9.47968 9.29084C9.47968 10.6903 10.6373 11.8247 12.065 11.8247C12.3068 11.8247 12.5407 11.7922 12.7627 11.7314L16.1585 30.4064L4.89217 24.7949C5.03019 24.5285 5.1215 24.235 5.15579 23.9247C5.15937 23.8917 5.16232 23.8585 5.16463 23.8252C5.16694 23.793 5.16863 23.7605 5.16947 23.728C5.17031 23.7019 5.17073 23.6757 5.17073 23.6494C5.17073 22.25 4.01312 21.1155 2.58537 21.1155C1.15761 21.1155 0 22.25 0 23.6494C0 25.0488 1.15761 26.1833 2.58537 26.1833C3.14439 26.1833 3.66197 26.0093 4.08487 25.7136L17.0203 48.1434H14.435L13.1423 53H39.8577L38.1341 48.1434H35.7642L49.0464 25.7997C49.4432 26.0427 49.9122 26.1833 50.4146 26.1833C51.8424 26.1833 53 25.0488 53 23.6494C53 22.25 51.8424 21.1155 50.4146 21.1155C48.9869 21.1155 47.8293 22.25 47.8293 23.6494C47.8293 24.0905 47.9444 24.5053 48.1465 24.8664L36.8415 30.4064L40.4178 11.774C40.5849 11.8073 40.7578 11.8247 40.935 11.8247C42.3627 11.8247 43.5203 10.6903 43.5203 9.29084C43.5203 7.89142 42.3627 6.75697 40.935 6.75697C39.5072 6.75697 38.3496 7.89142 38.3496 9.29084C38.3496 10.1132 38.7493 10.844 39.3688 11.3069L29.9472 24.7052L26.8343 5.06515Z" fill="#0B0F17"/>
</svg>
