<svg width="53" height="52" viewBox="0 0 53 52" fill="none" xmlns="http://www.w3.org/2000/svg">
<path d="M26.5 38.8971C24.076 42.5044 20.0937 44.9614 15.5273 45.2862C15.1854 45.3105 14.8402 45.3229 14.4922 45.3229C6.48833 45.3229 0 38.7835 0 30.7166C0 22.6497 6.48833 16.1103 14.4922 16.1103C17.8483 16.1103 20.938 17.4145 23.3945 19.3445C24.5952 20.2878 25.6446 21.4175 26.5 22.6905C27.4694 21.2478 28.688 19.9892 30.0936 18.9773C32.4658 17.2695 35.3704 16.1103 38.5078 16.1103C46.5117 16.1103 53 22.6497 53 30.7166C53 38.7835 46.5117 45.3229 38.5078 45.3229C38.1598 45.3229 37.8146 45.3105 37.4727 45.2862C32.9063 44.9614 28.924 42.5044 26.5 38.8971Z" fill="#0B0F17"/>
<path d="M26.5 22.6905C27.4694 21.2478 28.688 19.9892 30.0936 18.9773L30 20L29.953 16L28 13V8H33V4.99697H28V0H25V4.99697L20 5V8.00303L25 8V13L23 16V20L23.3945 19.3445C24.5952 20.2878 25.6446 21.4175 26.5 22.6905Z" fill="#0B0F17"/>
<path d="M26.5 38.8971C24.076 42.5044 20.0937 44.9614 15.5273 45.2862L13.25 52H40.1641L37.4727 45.2862C32.9063 44.9614 28.924 42.5044 26.5 38.8971Z" fill="#0B0F17"/>
</svg>
