<svg width="41" height="57" viewBox="0 0 41 57" fill="none" xmlns="http://www.w3.org/2000/svg">
<path d="M39.4437 56.2573C39.4623 56.4935 39.4403 56.7696 39.3784 57H8.12016C7.9251 56.3993 8.00807 55.7195 8.47674 54.952C9.01779 54.0525 10.0593 53.486 11.0364 52.9342C12.0832 52.3444 13.1255 51.7065 13.8484 50.8194C15.2227 49.1299 14.0761 47.2495 14.8581 45.4483C15.3524 44.3121 16.2977 43.8418 17.4248 43.6633L17.5581 42.4092C15.0135 42.2959 12.9614 42.1943 12.0664 42.1493C11.9204 42.1417 11.7796 42.0989 11.6595 42.0255C11.5395 41.9521 11.4448 41.851 11.3859 41.7333L9.27022 37.4975C9.2163 37.3893 9.19448 37.2708 9.20683 37.1531C9.21918 37.0354 9.26529 36.9224 9.34083 36.8247L19.9535 23.1248L20.2607 21.5618L9.66917 23.4096C9.66917 23.4096 8.50499 24.7546 8.23579 26.3897C7.96659 28.0249 4.2269 27.9985 4.2269 27.9985L0 22.7368C0 22.7368 5.9489 14.0907 4.96301 12.1924L3.55522 9.48164C3.55522 9.48164 7.29932 7.29314 12.7822 6.02583L12.9896 0.276751C13.0002 -0.0251381 13.5139 -0.104297 13.7381 0.161117L18.0215 5.22027C18.1353 5.34988 20.6323 5.53225 21.0224 5.65565C23.9078 6.56944 26.6126 7.87509 29.0384 9.5251C34.3053 13.0946 37.9836 18.1737 39.434 23.8799C39.7323 25.0565 41.9071 38.0043 40.5682 38.2868L36.358 39.1327C36.2936 41.1939 36.0888 42.521 35.8761 42.6956C35.6307 42.8966 33.1603 42.916 29.8804 42.8469L30.0084 43.8605C31.1647 44.0033 32.0588 44.3548 32.6228 45.6415C33.4109 47.4397 32.2706 49.3247 33.6519 51.0096C34.3774 51.8951 35.4251 52.5299 36.471 53.1166C37.4534 53.6653 38.494 54.2295 39.0421 55.1297C39.2652 55.4764 39.402 55.8607 39.4437 56.2573Z" fill="#0B0F17"/>
</svg>
