<svg width="13" height="13" viewBox="0 0 13 13" fill="none" xmlns="http://www.w3.org/2000/svg">
<path d="M6.582 1.2424C6.91869 1.22747 7.18699 0.955183 7.18699 0.621514C7.18699 0.27826 6.90305 0 6.55285 0C6.20264 0 5.9187 0.27826 5.9187 0.621514C5.9187 0.920132 6.13359 1.16956 6.42006 1.22937L5.65447 6.05976L3.37277 2.75015C3.50788 2.63617 3.5935 2.46732 3.5935 2.27888C3.5935 1.93563 3.30955 1.65737 2.95935 1.65737C2.60914 1.65737 2.3252 1.93563 2.3252 2.27888C2.3252 2.62214 2.60914 2.9004 2.95935 2.9004C3.01865 2.9004 3.07603 2.89243 3.13048 2.87751L3.96341 7.45817L1.19997 6.08176C1.23382 6.01642 1.25622 5.94444 1.26463 5.86832C1.26551 5.86023 1.26623 5.85208 1.2668 5.84392C1.26736 5.83603 1.26778 5.82806 1.26798 5.82007C1.26819 5.81367 1.26829 5.80725 1.26829 5.8008C1.26829 5.45754 0.984351 5.17928 0.634146 5.17928C0.283942 5.17928 0 5.45754 0 5.8008C0 6.14405 0.283942 6.42231 0.634146 6.42231C0.771266 6.42231 0.898219 6.37965 1.00195 6.30712L4.1748 11.8088H3.54065L3.22358 13H9.77642L9.35366 11.8088H8.77236L12.0303 6.32823C12.1276 6.38784 12.2426 6.42231 12.3659 6.42231C12.7161 6.42231 13 6.14405 13 5.8008C13 5.45754 12.7161 5.17928 12.3659 5.17928C12.0156 5.17928 11.7317 5.45754 11.7317 5.8008C11.7317 5.90899 11.7599 6.01073 11.8095 6.09931L9.03659 7.45817L9.9138 2.88796C9.95478 2.89612 9.9972 2.9004 10.0407 2.9004C10.3909 2.9004 10.6748 2.62214 10.6748 2.27888C10.6748 1.93563 10.3909 1.65737 10.0407 1.65737C9.69045 1.65737 9.4065 1.93563 9.4065 2.27888C9.4065 2.48059 9.50456 2.65985 9.65649 2.77339L7.34553 6.05976L6.582 1.2424Z" fill="#EBEBEB"/>
</svg>
