<svg width="24" height="18" viewBox="0 0 24 18" fill="none" xmlns="http://www.w3.org/2000/svg">
<path d="M2.04207 11.25V1.5375L0 2.825V1.275L2.04207 0H3.38744V11.25H2.04207Z" fill="#EBEBEB"/>
<path d="M12.3315 0L7.71878 18H9.53262L14.1453 0H12.3315Z" fill="#EBEBEB"/>
<path d="M16.7927 18L16.8047 16.75L21.6096 12.2375C22.01 11.8625 22.2782 11.5083 22.4144 11.175C22.5505 10.8333 22.6186 10.4917 22.6186 10.15C22.6186 9.49167 22.4104 8.9375 21.994 8.4875C21.5855 8.0375 21.069 7.8125 20.4444 7.8125C20.0119 7.8125 19.6276 7.92083 19.2912 8.1375C18.9549 8.35417 18.6866 8.6375 18.4864 8.9875C18.2942 9.3375 18.2061 9.71667 18.2221 10.125H16.8407C16.8407 9.41667 16.9969 8.79167 17.3092 8.25C17.6215 7.7 18.05 7.27083 18.5945 6.9625C19.1391 6.65417 19.7597 6.5 20.4564 6.5C21.1291 6.5 21.7297 6.6625 22.2582 6.9875C22.7948 7.30417 23.2192 7.74167 23.5315 8.3C23.8438 8.85 24 9.47083 24 10.1625C24 10.6542 23.9359 11.0792 23.8078 11.4375C23.6877 11.7875 23.5035 12.1167 23.2552 12.425C23.015 12.725 22.7107 13.0458 22.3423 13.3875L18.1621 17.325L17.9098 16.6625H24V18H16.7927Z" fill="#EBEBEB"/>
</svg>
