<svg width="27" height="45" viewBox="0 0 27 45" fill="none" xmlns="http://www.w3.org/2000/svg">
<path d="M26.9999 43.0805C26.9993 42.6653 26.8562 42.2624 26.5938 41.9369C26.3314 41.6113 25.965 41.3821 25.5537 41.2861C25.5939 41.1191 25.6082 40.9471 25.5961 40.7759C25.5691 40.4885 25.4803 40.2099 25.3355 39.9586C24.9798 39.3061 24.3045 38.8972 23.667 38.4995C22.9883 38.0743 22.3085 37.6141 21.8376 36.9723C20.9413 35.7511 21.6813 34.3848 21.1698 33.0815C20.8038 32.1489 20.2236 31.8941 19.4733 31.7906L19.3902 31.0559C21.5186 31.106 23.1218 31.0919 23.281 30.9463C23.419 30.8197 23.5519 29.8578 23.5937 28.3638L26.3258 27.7507C27.1947 27.5459 25.7834 18.1612 25.5898 17.3085C24.6486 13.1725 22.2617 9.49109 18.8438 6.9039C17.2697 5.70796 15.5145 4.76161 13.642 4.09928C13.3889 4.00984 11.7685 3.87765 11.6946 3.78371L8.91502 0.116779C8.76954 -0.0755954 8.43619 -0.0182204 8.42932 0.200592L8.29472 4.36759C4.73673 5.28615 2.30708 6.8724 2.30708 6.8724L3.22063 8.83721C3.86041 10.2131 0 16.4799 0 16.4799L2.74295 20.2936C2.74295 20.2936 5.16974 20.3128 5.34443 19.1276C5.51912 17.9424 6.27459 16.9676 6.27459 16.9676L13.1477 15.6283L12.9484 16.7611L6.06153 26.6909C6.0125 26.7618 5.98258 26.8437 5.97457 26.929C5.96656 27.0143 5.98071 27.1002 6.01571 27.1786L7.38861 30.2488C7.42683 30.3341 7.48828 30.4074 7.5662 30.4606C7.64412 30.5137 7.73548 30.5448 7.83021 30.5503C8.41099 30.5829 9.74266 30.6566 11.3939 30.7387L11.3074 31.6477C10.576 31.7771 9.9626 32.1179 9.64185 32.9414C9.13439 34.247 9.8784 35.6099 8.98661 36.8345C8.51752 37.4774 7.84109 37.9398 7.1618 38.3673C6.52775 38.7672 5.8519 39.1779 5.50079 39.8298C5.19666 40.3861 5.14282 40.8789 5.2694 41.3142C4.85421 41.4082 4.48377 41.6378 4.21867 41.9654C3.95357 42.2929 3.80949 42.6992 3.81 43.1176V43.1547C3.81068 43.3976 3.86005 43.6379 3.95528 43.8619C4.05052 44.086 4.18977 44.2894 4.36507 44.4607C4.54037 44.6319 4.74829 44.7675 4.97697 44.8598C5.20564 44.9521 5.45059 44.9993 5.69782 44.9986L25.1213 44.9677C25.6203 44.9668 26.0986 44.7713 26.4509 44.4241C26.8032 44.077 27.0007 43.6066 26.9999 43.1165V43.0805Z" fill="#D3CEC1"/>
<g style="mix-blend-mode:multiply" opacity="0.2">
<path d="M11.3916 30.7386L19.3902 31.057L19.4733 31.7916L11.3916 31.0024V30.7386Z" fill="#0E121C"/>
</g>
<g style="mix-blend-mode:multiply" opacity="0.2">
<path d="M23.5937 28.3648C23.7759 28.3243 23.1676 23.7742 23.1029 23.3147C22.8594 21.5923 22.5175 19.88 22.0043 18.2145C20.9544 14.8085 19.1932 11.5207 16.3065 9.29211C14.3047 7.74805 11.7817 6.3868 9.14697 6.41436C11.123 6.39355 13.1981 6.63936 15.0773 7.23955C18.4308 8.3083 20.6801 11.4504 22.2529 14.3833C23.7237 17.1256 24.6579 20.1144 25.0073 23.1948C25.0462 23.543 25.6093 27.8822 25.3784 27.9665L23.5937 28.3648Z" fill="#0E121C"/>
</g>
</svg>
