<svg width="24" height="40" viewBox="0 0 24 40" fill="none" xmlns="http://www.w3.org/2000/svg">
<path d="M24 38.2949C23.9994 37.9259 23.8723 37.5678 23.639 37.2784C23.4058 36.989 23.0801 36.7852 22.7145 36.6999C22.7502 36.5514 22.7629 36.3986 22.7521 36.2464C22.7281 35.9908 22.6492 35.7432 22.5205 35.5199C22.2043 34.9398 21.6041 34.5763 21.0374 34.2228C20.4341 33.8448 19.8298 33.4358 19.4113 32.8653C18.6145 31.7797 19.2723 30.5652 18.8176 29.4067C18.4923 28.5777 17.9766 28.3511 17.3096 28.2591L17.2358 27.6061C19.1277 27.6506 20.5527 27.6381 20.6943 27.5086C20.817 27.3961 20.9351 26.5411 20.9722 25.2131L23.4008 24.668C24.1731 24.486 22.9186 16.1438 22.7465 15.3858C21.9099 11.7092 19.7882 8.43678 16.7501 6.13699C15.3509 5.07389 13.7907 4.23267 12.1263 3.64391C11.9012 3.56441 10.4609 3.44691 10.3952 3.3634L7.92448 0.103807C7.79516 -0.0671979 7.49885 -0.0161964 7.49274 0.178309L7.3731 3.88242C4.21044 4.69894 2.05074 6.10899 2.05074 6.10899L2.86279 7.85554C3.43148 9.07857 0 14.6492 0 14.6492L2.43818 18.0393C2.43818 18.0393 4.59533 18.0563 4.75061 17.0028C4.9059 15.9493 5.57743 15.0828 5.57743 15.0828L11.6869 13.8922L11.5097 14.8992L5.38804 23.726C5.34446 23.789 5.31786 23.8618 5.31074 23.9376C5.30362 24.0134 5.3162 24.0898 5.34731 24.1595L6.56767 26.8886C6.60164 26.9644 6.65627 27.0296 6.72553 27.0769C6.79479 27.1242 6.876 27.1518 6.9602 27.1566C7.47645 27.1856 8.66016 27.2511 10.128 27.3241L10.0511 28.1321C9.40093 28.2471 8.85566 28.5502 8.57055 29.2822C8.11947 30.4427 8.78082 31.6542 7.98812 32.7428C7.57115 33.3143 6.96988 33.7253 6.36606 34.1053C5.80246 34.4608 5.2017 34.8258 4.88961 35.4054C4.61926 35.8999 4.5714 36.3379 4.68392 36.7249C4.31486 36.8084 3.98558 37.0125 3.74994 37.3037C3.51429 37.5949 3.38622 37.956 3.38668 38.3279V38.3609C3.38728 38.5768 3.43116 38.7904 3.51582 38.9896C3.60047 39.1887 3.72424 39.3696 3.88007 39.5218C4.03589 39.674 4.22071 39.7946 4.42398 39.8766C4.62725 39.9587 4.84498 40.0006 5.06474 40L22.3301 39.9725C22.7737 39.9717 23.1988 39.7979 23.512 39.4893C23.8251 39.1807 24.0007 38.7626 24 38.3269V38.2949Z" fill="#EBEBEB"/>
</svg>
